<?xml version="1.0" standalone="no"?>
<!DOCTYPE svg PUBLIC "-//W3C//DTD SVG 20010904//EN"
 "http://www.w3.org/TR/2001/REC-SVG-20010904/DTD/svg10.dtd">
<svg version="1.0" xmlns="http://www.w3.org/2000/svg"
 width="700.000000pt" height="700.000000pt" viewBox="0 0 700.000000 700.000000"
 preserveAspectRatio="xMidYMid meet">
<metadata>
Created by potrace 1.11, written by Peter Selinger 2001-2013
</metadata>
<g transform="translate(0.000000,700.000000) scale(0.100000,-0.100000)"
fill="#000000" stroke="none">
<path d="M3377 6864 c-1 -1 -50 -4 -109 -8 -442 -26 -916 -158 -1307 -363
-541 -283 -962 -667 -1304 -1190 -26 -40 -47 -75 -47 -77 0 -3 -15 -29 -33
-58 -33 -53 -167 -319 -167 -332 0 -4 -12 -33 -26 -64 -35 -77 -120 -333 -145
-439 -12 -49 -23 -97 -26 -108 -13 -53 -49 -264 -57 -340 -24 -210 -24 -644
-1 -767 3 -11 7 -41 10 -67 3 -25 7 -59 10 -76 3 -16 7 -42 9 -58 3 -15 7 -35
10 -45 3 -9 7 -33 10 -52 8 -55 64 -264 98 -369 90 -276 233 -571 399 -819 50
-75 166 -232 179 -242 3 -3 13 -15 21 -27 51 -75 294 -320 429 -435 342 -288
761 -517 1178 -644 112 -34 344 -91 407 -99 17 -2 79 -11 138 -19 390 -55 848
-33 1217 59 224 55 328 89 537 173 205 83 509 257 698 400 99 75 140 107 145
113 3 4 25 23 50 44 113 94 338 327 430 445 123 160 288 405 307 457 4 10 9
20 12 23 3 3 32 57 63 120 148 299 255 623 303 920 2 14 7 35 9 48 3 13 8 53
12 90 3 37 7 69 9 72 15 25 23 417 12 595 -10 173 -53 450 -91 590 -2 6 -6 24
-10 40 -68 270 -227 646 -374 883 -29 46 -52 87 -52 92 0 5 -4 10 -8 12 -5 2
-28 32 -52 68 -95 142 -259 339 -396 475 -572 569 -1310 906 -2123 971 -77 6
-368 13 -374 8z"/>
</g>
</svg>
